<mxfile host="Electron" agent="Mozilla/5.0 (Windows NT 10.0; Win64; x64) AppleWebKit/537.36 (KHTML, like Gecko) draw.io/28.1.2 Chrome/138.0.7204.243 Electron/37.4.0 Safari/537.36" version="28.1.2">
  <diagram name="Seite-1" id="5c7HCJ0KsOnFXkgonr8n">
    <mxGraphModel dx="752" dy="569" grid="1" gridSize="10" guides="1" tooltips="1" connect="1" arrows="1" fold="1" page="1" pageScale="1" pageWidth="827" pageHeight="1169" math="0" shadow="0">
      <root>
        <mxCell id="0" />
        <mxCell id="1" parent="0" />
        <mxCell id="FLNs1Q71Qrn9vDn5VVuS-6" value="" style="edgeStyle=orthogonalEdgeStyle;rounded=0;orthogonalLoop=1;jettySize=auto;html=1;" edge="1" parent="1" source="FLNs1Q71Qrn9vDn5VVuS-2" target="FLNs1Q71Qrn9vDn5VVuS-3">
          <mxGeometry relative="1" as="geometry" />
        </mxCell>
        <mxCell id="FLNs1Q71Qrn9vDn5VVuS-2" value="start" style="strokeWidth=2;html=1;shape=mxgraph.flowchart.start_1;whiteSpace=wrap;" vertex="1" parent="1">
          <mxGeometry x="364" y="40" width="100" height="60" as="geometry" />
        </mxCell>
        <mxCell id="FLNs1Q71Qrn9vDn5VVuS-7" value="" style="edgeStyle=orthogonalEdgeStyle;rounded=0;orthogonalLoop=1;jettySize=auto;html=1;" edge="1" parent="1" source="FLNs1Q71Qrn9vDn5VVuS-3" target="FLNs1Q71Qrn9vDn5VVuS-4">
          <mxGeometry relative="1" as="geometry" />
        </mxCell>
        <mxCell id="FLNs1Q71Qrn9vDn5VVuS-3" value="define variable:&lt;div&gt;&lt;font style=&quot;color: rgb(51, 51, 255);&quot;&gt;name&lt;/font&gt;:Markus&lt;/div&gt;&lt;div&gt;&lt;font style=&quot;color: rgb(51, 51, 255);&quot;&gt;country&lt;/font&gt;:germany&lt;/div&gt;&lt;div&gt;&lt;font style=&quot;color: rgb(51, 51, 255);&quot;&gt;age&lt;/font&gt;:38&lt;br&gt;&lt;font style=&quot;color: rgb(0, 153, 0);&quot;&gt;result&lt;/font&gt;: NULL&lt;/div&gt;" style="verticalLabelPosition=middle;verticalAlign=middle;html=1;shape=process;whiteSpace=wrap;rounded=1;size=0.14;arcSize=6;labelPosition=center;align=center;" vertex="1" parent="1">
          <mxGeometry x="333.5" y="170" width="161" height="90" as="geometry" />
        </mxCell>
        <mxCell id="FLNs1Q71Qrn9vDn5VVuS-11" style="edgeStyle=orthogonalEdgeStyle;rounded=0;orthogonalLoop=1;jettySize=auto;html=1;entryX=0.5;entryY=0;entryDx=0;entryDy=0;" edge="1" parent="1" source="FLNs1Q71Qrn9vDn5VVuS-4" target="FLNs1Q71Qrn9vDn5VVuS-9">
          <mxGeometry relative="1" as="geometry" />
        </mxCell>
        <mxCell id="FLNs1Q71Qrn9vDn5VVuS-4" value="&lt;font style=&quot;color: rgb(0, 153, 0);&quot;&gt;result&lt;/font&gt; = Hello my name is &quot;&lt;font style=&quot;color: rgb(51, 51, 255);&quot;&gt;name&lt;/font&gt;&lt;font style=&quot;color: rgb(126, 166, 224);&quot;&gt;&quot;&lt;/font&gt;, i am from &quot;&lt;font style=&quot;color: rgb(51, 51, 255);&quot;&gt;country&lt;/font&gt;&quot; and i´m &quot;&lt;font style=&quot;color: rgb(51, 51, 255);&quot;&gt;age&lt;/font&gt;&quot; years old." style="verticalLabelPosition=middle;verticalAlign=middle;html=1;shape=process;whiteSpace=wrap;rounded=1;size=0.14;arcSize=6;labelPosition=center;align=center;" vertex="1" parent="1">
          <mxGeometry x="339" y="330" width="149" height="70" as="geometry" />
        </mxCell>
        <mxCell id="FLNs1Q71Qrn9vDn5VVuS-8" value="process: means when your app shall do something itself" style="strokeWidth=2;html=1;shape=mxgraph.flowchart.document2;whiteSpace=wrap;size=0.25;" vertex="1" parent="1">
          <mxGeometry x="80" y="330" width="180" height="70" as="geometry" />
        </mxCell>
        <mxCell id="FLNs1Q71Qrn9vDn5VVuS-12" style="edgeStyle=orthogonalEdgeStyle;rounded=0;orthogonalLoop=1;jettySize=auto;html=1;entryX=0.5;entryY=0;entryDx=0;entryDy=0;" edge="1" parent="1" source="FLNs1Q71Qrn9vDn5VVuS-9" target="FLNs1Q71Qrn9vDn5VVuS-10">
          <mxGeometry relative="1" as="geometry" />
        </mxCell>
        <mxCell id="FLNs1Q71Qrn9vDn5VVuS-9" value="print: &lt;font style=&quot;color: rgb(0, 153, 0);&quot;&gt;result&lt;/font&gt;" style="rounded=1;whiteSpace=wrap;html=1;" vertex="1" parent="1">
          <mxGeometry x="354" y="460" width="120" height="60" as="geometry" />
        </mxCell>
        <mxCell id="FLNs1Q71Qrn9vDn5VVuS-10" value="end" style="ellipse;whiteSpace=wrap;html=1;aspect=fixed;" vertex="1" parent="1">
          <mxGeometry x="374" y="560" width="80" height="80" as="geometry" />
        </mxCell>
        <mxCell id="FLNs1Q71Qrn9vDn5VVuS-13" value="" style="whiteSpace=wrap;html=1;aspect=fixed;" vertex="1" parent="1">
          <mxGeometry x="90" y="690" width="670" height="670" as="geometry" />
        </mxCell>
        <mxCell id="FLNs1Q71Qrn9vDn5VVuS-14" value="text generator process" style="text;html=1;align=center;verticalAlign=middle;whiteSpace=wrap;rounded=0;" vertex="1" parent="1">
          <mxGeometry x="110" y="700" width="190" height="30" as="geometry" />
        </mxCell>
        <mxCell id="FLNs1Q71Qrn9vDn5VVuS-26" value="" style="edgeStyle=orthogonalEdgeStyle;rounded=0;orthogonalLoop=1;jettySize=auto;html=1;" edge="1" parent="1" source="FLNs1Q71Qrn9vDn5VVuS-15" target="FLNs1Q71Qrn9vDn5VVuS-17">
          <mxGeometry relative="1" as="geometry" />
        </mxCell>
        <mxCell id="FLNs1Q71Qrn9vDn5VVuS-15" value="start" style="ellipse;whiteSpace=wrap;html=1;" vertex="1" parent="1">
          <mxGeometry x="180" y="740" width="80" height="50" as="geometry" />
        </mxCell>
        <mxCell id="FLNs1Q71Qrn9vDn5VVuS-27" value="" style="edgeStyle=orthogonalEdgeStyle;rounded=0;orthogonalLoop=1;jettySize=auto;html=1;" edge="1" parent="1" source="FLNs1Q71Qrn9vDn5VVuS-17" target="FLNs1Q71Qrn9vDn5VVuS-19">
          <mxGeometry relative="1" as="geometry" />
        </mxCell>
        <mxCell id="FLNs1Q71Qrn9vDn5VVuS-17" value="input: name, country, age" style="shape=parallelogram;perimeter=parallelogramPerimeter;whiteSpace=wrap;html=1;fixedSize=1;" vertex="1" parent="1">
          <mxGeometry x="132" y="830" width="176" height="60" as="geometry" />
        </mxCell>
        <mxCell id="FLNs1Q71Qrn9vDn5VVuS-28" value="no" style="edgeStyle=orthogonalEdgeStyle;rounded=0;orthogonalLoop=1;jettySize=auto;html=1;" edge="1" parent="1" source="FLNs1Q71Qrn9vDn5VVuS-19" target="FLNs1Q71Qrn9vDn5VVuS-22">
          <mxGeometry relative="1" as="geometry" />
        </mxCell>
        <mxCell id="FLNs1Q71Qrn9vDn5VVuS-30" value="yes" style="edgeStyle=orthogonalEdgeStyle;rounded=0;orthogonalLoop=1;jettySize=auto;html=1;" edge="1" parent="1" source="FLNs1Q71Qrn9vDn5VVuS-19" target="FLNs1Q71Qrn9vDn5VVuS-21">
          <mxGeometry relative="1" as="geometry" />
        </mxCell>
        <mxCell id="FLNs1Q71Qrn9vDn5VVuS-19" value="all input exists" style="rhombus;whiteSpace=wrap;html=1;" vertex="1" parent="1">
          <mxGeometry x="175" y="930" width="90" height="90" as="geometry" />
        </mxCell>
        <mxCell id="FLNs1Q71Qrn9vDn5VVuS-31" value="" style="edgeStyle=orthogonalEdgeStyle;rounded=0;orthogonalLoop=1;jettySize=auto;html=1;" edge="1" parent="1" source="FLNs1Q71Qrn9vDn5VVuS-21" target="FLNs1Q71Qrn9vDn5VVuS-24">
          <mxGeometry relative="1" as="geometry" />
        </mxCell>
        <mxCell id="FLNs1Q71Qrn9vDn5VVuS-21" value="&lt;div&gt;&lt;font style=&quot;color: rgb(0, 0, 0);&quot;&gt;&lt;font style=&quot;color: rgb(0, 153, 0);&quot;&gt;result&lt;/font&gt;&amp;nbsp;= Hello my name is +&lt;font style=&quot;color: rgb(51, 51, 255);&quot;&gt;name&lt;/font&gt;, i am from +&lt;font style=&quot;color: rgb(51, 51, 255);&quot;&gt;country&lt;/font&gt;&amp;nbsp;and i´m +&lt;font style=&quot;color: rgb(51, 51, 255);&quot;&gt;age&lt;/font&gt;&amp;nbsp;years old.&lt;/font&gt;&lt;/div&gt;" style="rounded=0;whiteSpace=wrap;html=1;" vertex="1" parent="1">
          <mxGeometry x="116" y="1070" width="208" height="60" as="geometry" />
        </mxCell>
        <mxCell id="FLNs1Q71Qrn9vDn5VVuS-29" style="edgeStyle=orthogonalEdgeStyle;rounded=0;orthogonalLoop=1;jettySize=auto;html=1;entryX=1;entryY=0.5;entryDx=0;entryDy=0;" edge="1" parent="1" source="FLNs1Q71Qrn9vDn5VVuS-22" target="FLNs1Q71Qrn9vDn5VVuS-23">
          <mxGeometry relative="1" as="geometry">
            <Array as="points">
              <mxPoint x="510" y="975" />
              <mxPoint x="510" y="1290" />
            </Array>
          </mxGeometry>
        </mxCell>
        <mxCell id="FLNs1Q71Qrn9vDn5VVuS-22" value="print: error" style="rounded=0;whiteSpace=wrap;html=1;" vertex="1" parent="1">
          <mxGeometry x="365" y="945" width="120" height="60" as="geometry" />
        </mxCell>
        <mxCell id="FLNs1Q71Qrn9vDn5VVuS-23" value="end" style="ellipse;whiteSpace=wrap;html=1;aspect=fixed;" vertex="1" parent="1">
          <mxGeometry x="180" y="1250" width="80" height="80" as="geometry" />
        </mxCell>
        <mxCell id="FLNs1Q71Qrn9vDn5VVuS-32" value="" style="edgeStyle=orthogonalEdgeStyle;rounded=0;orthogonalLoop=1;jettySize=auto;html=1;" edge="1" parent="1" source="FLNs1Q71Qrn9vDn5VVuS-24" target="FLNs1Q71Qrn9vDn5VVuS-23">
          <mxGeometry relative="1" as="geometry" />
        </mxCell>
        <mxCell id="FLNs1Q71Qrn9vDn5VVuS-24" value="print: &lt;font style=&quot;color: rgb(0, 153, 0);&quot;&gt;result&lt;/font&gt;" style="rounded=0;whiteSpace=wrap;html=1;" vertex="1" parent="1">
          <mxGeometry x="160" y="1169" width="120" height="60" as="geometry" />
        </mxCell>
        <mxCell id="FLNs1Q71Qrn9vDn5VVuS-25" value="&lt;h1 style=&quot;margin-top: 0px;&quot;&gt;&lt;div style=&quot;text-align: justify;&quot;&gt;&lt;span style=&quot;background-color: transparent; color: light-dark(rgb(0, 0, 0), rgb(255, 255, 255)); font-size: 12px; font-weight: normal;&quot;&gt;Pseudo Code&lt;/span&gt;&lt;/div&gt;&lt;span style=&quot;background-color: transparent;&quot;&gt;&lt;div style=&quot;text-align: justify;&quot;&gt;&lt;span style=&quot;font-weight: 400;&quot;&gt;&lt;br&gt;&lt;/span&gt;&lt;/div&gt;&lt;font style=&quot;font-weight: normal; line-height: 100%; font-size: 13px;&quot; face=&quot;Helvetica&quot;&gt;&lt;div style=&quot;color: light-dark(rgb(0, 0, 0), rgb(255, 255, 255)); text-align: justify;&quot;&gt;&lt;span style=&quot;color: light-dark(rgb(0, 0, 0), rgb(255, 255, 255)); background-color: transparent;&quot;&gt;START&lt;/span&gt;&lt;/div&gt;&lt;span style=&quot;color: light-dark(rgb(0, 0, 0), rgb(255, 255, 255)); white-space: pre;&quot;&gt;&lt;div style=&quot;text-align: justify;&quot;&gt;&lt;span style=&quot;color: light-dark(rgb(0, 0, 0), rgb(255, 255, 255)); background-color: transparent;&quot;&gt;&#x9;&lt;/span&gt;&lt;span style=&quot;color: light-dark(rgb(0, 0, 0), rgb(255, 255, 255)); background-color: transparent; white-space: normal;&quot;&gt;SET name : Markus&lt;/span&gt;&lt;/div&gt;&lt;/span&gt;&lt;span style=&quot;color: light-dark(rgb(0, 0, 0), rgb(255, 255, 255)); white-space: pre;&quot;&gt;&lt;div style=&quot;text-align: justify;&quot;&gt;&lt;span style=&quot;color: light-dark(rgb(0, 0, 0), rgb(255, 255, 255)); background-color: transparent;&quot;&gt;&#x9;&lt;/span&gt;&lt;span style=&quot;color: light-dark(rgb(0, 0, 0), rgb(255, 255, 255)); background-color: transparent; white-space: normal;&quot;&gt;SET country: germany&lt;/span&gt;&lt;/div&gt;&lt;/span&gt;&lt;span style=&quot;color: light-dark(rgb(0, 0, 0), rgb(255, 255, 255)); white-space: pre;&quot;&gt;&lt;div style=&quot;text-align: justify;&quot;&gt;&lt;span style=&quot;color: light-dark(rgb(0, 0, 0), rgb(255, 255, 255)); background-color: transparent;&quot;&gt;&#x9;&lt;/span&gt;&lt;span style=&quot;color: light-dark(rgb(0, 0, 0), rgb(255, 255, 255)); background-color: transparent; white-space: normal;&quot;&gt;SET age : 38&lt;/span&gt;&lt;/div&gt;&lt;/span&gt;&lt;span style=&quot;color: light-dark(rgb(0, 0, 0), rgb(255, 255, 255)); white-space: pre;&quot;&gt;&lt;div style=&quot;text-align: justify;&quot;&gt;&lt;span style=&quot;color: light-dark(rgb(0, 0, 0), rgb(255, 255, 255)); background-color: transparent;&quot;&gt;&#x9;&lt;/span&gt;&lt;span style=&quot;color: light-dark(rgb(0, 0, 0), rgb(255, 255, 255)); background-color: transparent; white-space: normal;&quot;&gt;SET result : NULL&lt;/span&gt;&lt;/div&gt;&lt;/span&gt;&lt;span style=&quot;white-space: pre;&quot;&gt;&lt;div style=&quot;text-align: justify;&quot;&gt;&lt;span style=&quot;background-color: transparent; font-size: 12px; white-space: normal;&quot;&gt;&lt;font style=&quot;line-height: 100%; font-size: 13px;&quot; face=&quot;Helvetica&quot;&gt;&lt;span style=&quot;color: light-dark(rgb(0, 0, 0), rgb(255, 255, 255)); white-space: pre;&quot;&gt;&#x9;&lt;/span&gt;&lt;font style=&quot;color: light-dark(rgb(0, 153, 0), rgb(255, 255, 255));&quot;&gt;result&lt;/font&gt;&lt;/font&gt;&lt;font style=&quot;color: light-dark(rgb(0, 0, 0), rgb(255, 255, 255)); line-height: 100%; font-size: 13px;&quot; face=&quot;Helvetica&quot;&gt; =&amp;nbsp;&lt;/font&gt;&lt;/span&gt;&lt;span style=&quot;color: light-dark(rgb(0, 0, 0), rgb(255, 255, 255)); background-color: transparent; white-space: normal; font-size: 12px; text-align: center;&quot;&gt;Hello my name is &lt;span style=&quot;white-space: pre;&quot;&gt;&#x9;&lt;/span&gt;&quot;+&lt;/span&gt;&lt;font style=&quot;color: rgb(51, 51, 255); background-color: transparent; white-space: normal; font-size: 12px; text-align: center;&quot;&gt;name&lt;/font&gt;&lt;font style=&quot;color: rgb(126, 166, 224); background-color: transparent; white-space: normal; font-size: 12px; text-align: center;&quot;&gt;&quot;&lt;/font&gt;&lt;span style=&quot;color: light-dark(rgb(0, 0, 0), rgb(255, 255, 255)); background-color: transparent; white-space: normal; font-size: 12px; text-align: center;&quot;&gt;, i am from &lt;span style=&quot;white-space: pre;&quot;&gt;&#x9;&lt;/span&gt;&quot;+&lt;/span&gt;&lt;font style=&quot;color: rgb(51, 51, 255); background-color: transparent; white-space: normal; font-size: 12px; text-align: center;&quot;&gt;country&lt;/font&gt;&lt;span style=&quot;color: light-dark(rgb(0, 0, 0), rgb(255, 255, 255)); background-color: transparent; white-space: normal; font-size: 12px; text-align: center;&quot;&gt;&quot; and i´m &quot;+&lt;/span&gt;&lt;font style=&quot;color: rgb(51, 51, 255); background-color: transparent; white-space: normal; font-size: 12px; text-align: center;&quot;&gt;age&lt;/font&gt;&lt;span style=&quot;color: light-dark(rgb(0, 0, 0), rgb(255, 255, 255)); background-color: transparent; white-space: normal; font-size: 12px; text-align: center;&quot;&gt;&quot; old.&lt;/span&gt;&lt;/div&gt;&lt;/span&gt;&lt;/font&gt;&lt;/span&gt;&lt;/h1&gt;&lt;h1 style=&quot;margin-top: 0px;&quot;&gt;&lt;div style=&quot;text-align: justify;&quot;&gt;&lt;span style=&quot;font-size: 13px; background-color: transparent; color: light-dark(rgb(0, 0, 0), rgb(255, 255, 255)); font-weight: normal; white-space: pre;&quot;&gt;&#x9;&lt;/span&gt;&lt;span style=&quot;font-size: 13px; background-color: transparent; color: light-dark(rgb(0, 0, 0), rgb(255, 255, 255)); font-weight: normal;&quot;&gt;PRINT &lt;/span&gt;&lt;span style=&quot;font-size: 13px; background-color: transparent; font-weight: normal;&quot;&gt;&lt;font style=&quot;color: light-dark(rgb(0, 153, 0), rgb(255, 255, 255));&quot;&gt;result&lt;/font&gt;&lt;/span&gt;&lt;/div&gt;&lt;span style=&quot;background-color: transparent; color: light-dark(rgb(0, 0, 0), rgb(255, 255, 255)); font-weight: normal;&quot;&gt;&lt;div style=&quot;text-align: justify;&quot;&gt;&lt;span style=&quot;font-size: 13px; background-color: transparent; color: light-dark(rgb(0, 0, 0), rgb(255, 255, 255));&quot;&gt;END&lt;/span&gt;&lt;/div&gt;&lt;font style=&quot;line-height: 100%; font-size: 13px;&quot; face=&quot;Helvetica&quot;&gt;&lt;br&gt;&lt;/font&gt;&lt;br&gt;&lt;/span&gt;&lt;/h1&gt;" style="text;html=1;whiteSpace=wrap;overflow=hidden;rounded=0;" vertex="1" parent="1">
          <mxGeometry x="540" y="180" width="210" height="270" as="geometry" />
        </mxCell>
        <mxCell id="FLNs1Q71Qrn9vDn5VVuS-33" value="" style="shape=flexArrow;endArrow=classic;html=1;rounded=0;entryX=0;entryY=0.5;entryDx=0;entryDy=0;exitX=1;exitY=0.5;exitDx=0;exitDy=0;exitPerimeter=0;" edge="1" parent="1" source="FLNs1Q71Qrn9vDn5VVuS-8" target="FLNs1Q71Qrn9vDn5VVuS-4">
          <mxGeometry width="50" height="50" relative="1" as="geometry">
            <mxPoint x="270" y="390" as="sourcePoint" />
            <mxPoint x="320" y="340" as="targetPoint" />
          </mxGeometry>
        </mxCell>
      </root>
    </mxGraphModel>
  </diagram>
</mxfile>
